<svg xmlns="http://www.w3.org/2000/svg" width="72.337" height="46.457" viewBox="0 0 72.337 46.457">
  <g id="Group_2029" data-name="Group 2029" transform="translate(0.116 0.116)">
    <rect id="Rectangle_4423" data-name="Rectangle 4423" width="68.337" height="42.457" transform="translate(1.884 1.884)" fill="none" stroke="#9bbebf" stroke-linejoin="round" stroke-width="4"/>
    <path id="Path_2011" data-name="Path 2011" d="M34.569,20.533a11.065,11.065,0,0,1,.3,2.583" transform="translate(-2.007 -1.192)" fill="none" stroke="#9bbebf" stroke-linecap="round" stroke-linejoin="round" stroke-width="3"/>
    <path id="Path_2012" data-name="Path 2012" d="M30.328,14a11.037,11.037,0,0,1,3.995,6.157" transform="translate(-1.761 -0.813)" fill="none" stroke="#9bbebf" stroke-linejoin="round" stroke-width="3"/>
    <path id="Path_2013" data-name="Path 2013" d="M11.789,20.012a11.043,11.043,0,0,1,14.9-7.633" transform="translate(-0.685 -0.672)" fill="none" stroke="#9bbebf" stroke-width="3"/>
    <path id="Path_2014" data-name="Path 2014" d="M11.467,23.116a11.073,11.073,0,0,1,.3-2.584" transform="translate(-0.666 -1.192)" fill="none" stroke="#9bbebf" stroke-linecap="round" stroke-linejoin="round" stroke-width="3"/>
    <line id="Line_873" data-name="Line 873" x2="2.403" transform="translate(5.173 21.924)" fill="none" stroke="#9bbebf" stroke-linecap="round" stroke-linejoin="round" stroke-width="1"/>
    <line id="Line_874" data-name="Line 874" x2="2.081" y2="1.201" transform="translate(7.404 13.593)" fill="none" stroke="#9bbebf" stroke-linecap="round" stroke-linejoin="round" stroke-width="1"/>
    <line id="Line_875" data-name="Line 875" x2="1.201" y2="2.081" transform="translate(13.503 7.495)" fill="none" stroke="#9bbebf" stroke-linecap="round" stroke-linejoin="round" stroke-width="1"/>
    <line id="Line_876" data-name="Line 876" y2="2.403" transform="translate(21.834 5.263)" fill="none" stroke="#9bbebf" stroke-linecap="round" stroke-linejoin="round" stroke-width="1"/>
    <line id="Line_877" data-name="Line 877" x1="1.201" y2="2.081" transform="translate(28.963 7.495)" fill="none" stroke="#9bbebf" stroke-linecap="round" stroke-linejoin="round" stroke-width="1"/>
    <line id="Line_878" data-name="Line 878" x1="2.081" y2="1.201" transform="translate(34.182 13.593)" fill="none" stroke="#9bbebf" stroke-linecap="round" stroke-linejoin="round" stroke-width="1"/>
    <line id="Line_879" data-name="Line 879" x1="2.403" transform="translate(36.092 21.924)" fill="none" stroke="#9bbebf" stroke-linecap="round" stroke-linejoin="round" stroke-width="1"/>
    <path id="Path_2015" data-name="Path 2015" d="M21.42,21.692l7.64-9.466L24.683,23.575a1.9,1.9,0,1,1-3.263-1.884" transform="translate(-1.219 -0.71)" fill="#515c33"/>
    <line id="Line_881" data-name="Line 881" x2="15.157" transform="translate(11.084 29.599)" fill="none" stroke="#9bbebf" stroke-linecap="round" stroke-width="2"/>
    <line id="Line_882" data-name="Line 882" x2="15.157" transform="translate(11.084 33.304)" fill="none" stroke="#9bbebf" stroke-linecap="round" stroke-width="2"/>
    <line id="Line_883" data-name="Line 883" x2="15.157" transform="translate(11.084 37.009)" fill="none" stroke="#9bbebf" stroke-linecap="round" stroke-width="2"/>
    <line id="Line_884" data-name="Line 884" x2="9.11" transform="translate(49.772 9.791)" fill="none" stroke="#9bbebf" stroke-linecap="round" stroke-width="1"/>
    <line id="Line_885" data-name="Line 885" x2="9.11" transform="translate(49.772 13.496)" fill="none" stroke="#9bbebf" stroke-linecap="round" stroke-width="1"/>
    <line id="Line_886" data-name="Line 886" transform="translate(60.608 13.496)" fill="none" stroke="#9bbebf" stroke-linecap="round" stroke-width="1"/>
    <line id="Line_887" data-name="Line 887" transform="translate(60.608 9.791)" fill="none" stroke="#9bbebf" stroke-linecap="round" stroke-width="1"/>
    <line id="Line_888" data-name="Line 888" y1="3.705" transform="translate(43.169 33.023)" fill="none" stroke="#515c33" stroke-width="5"/>
    <line id="Line_889" data-name="Line 889" y1="11.234" transform="translate(49.217 25.494)" fill="none" stroke="#c8e675" stroke-width="5"/>
    <path id="Path_2016" data-name="Path 2016" d="M0,7.141V0" transform="translate(55.384 29.587)" fill="none" stroke="#515c33" stroke-width="5"/>
    <line id="Line_891" data-name="Line 891" y1="14.526" transform="translate(61.556 22.202)" fill="none" stroke="#c8e675" stroke-width="5"/>
    <line id="Line_892" data-name="Line 892" x2="24.04" transform="translate(40.272 36.997)" fill="none" stroke="#9bbebf" stroke-width="2"/>
  </g>
</svg>
